<svg data-v-423bf9ae="" xmlns="http://www.w3.org/2000/svg" viewBox="0 0 578 90" class="iconLeft"><!----><!----><!----><g data-v-423bf9ae="" id="e8bda245-b105-4591-8f78-8c737af83e0f" fill="#000" transform="matrix(6.578947450975964,0,0,6.578947450975964,129.92032076273938,-21.18421241087927)"><path d="M3.46 14.40L0.54 14.40L0.59 14.04L1.64 13.81L1.64 9.24L0.58 8.97L0.63 8.61L2.44 8.41L2.52 8.50L2.45 9.41L2.51 9.41L2.51 9.41Q2.85 8.98 3.43 8.65L3.43 8.65L3.43 8.65Q4.01 8.31 4.69 8.31L4.69 8.31L4.69 8.31Q5.37 8.31 5.79 8.81L5.79 8.81L5.79 8.81Q6.21 9.31 6.21 10.29L6.21 10.29L6.21 13.81L7.18 14L7.13 14.40L4.31 14.40L4.36 14.04L5.32 13.81L5.32 10.51L5.32 10.51Q5.32 9.78 4.99 9.42L4.99 9.42L4.99 9.42Q4.67 9.06 4.17 9.06L4.17 9.06L4.17 9.06Q3.68 9.06 3.31 9.23L3.31 9.23L3.31 9.23Q2.94 9.41 2.53 9.82L2.53 9.82L2.53 13.81L3.53 14L3.46 14.40ZM8.94 10.93L8.94 10.93L11.34 10.77L11.34 10.77Q11.39 10.64 11.39 10.12L11.39 10.12L11.39 10.12Q11.39 9.60 11.10 9.24L11.10 9.24L11.10 9.24Q10.81 8.87 10.27 8.87L10.27 8.87L10.27 8.87Q9.74 8.87 9.35 9.40L9.35 9.40L9.35 9.40Q8.97 9.94 8.94 10.93ZM12.40 13.38L12.53 13.69L12.53 13.69Q11.74 14.60 10.42 14.60L10.42 14.60L10.42 14.60Q9.41 14.60 8.69 13.82L8.69 13.82L8.69 13.82Q7.96 13.04 7.96 11.53L7.96 11.53L7.96 11.53Q7.96 10.79 8.20 10.17L8.20 10.17L8.20 10.17Q8.43 9.55 8.81 9.16L8.81 9.16L8.81 9.16Q9.62 8.34 10.64 8.34L10.64 8.34L10.64 8.34Q11.43 8.34 11.89 8.86L11.89 8.86L11.89 8.86Q12.35 9.38 12.35 10.42L12.35 10.42L12.35 10.42Q12.35 10.86 12.24 11.31L12.24 11.31L8.93 11.35L8.93 11.35Q8.96 12.37 9.43 13.12L9.43 13.12L9.43 13.12Q9.91 13.86 10.80 13.86L10.80 13.86L10.80 13.86Q11.70 13.86 12.40 13.38L12.40 13.38ZM15.47 14.56L15.47 14.56L15.47 14.56Q14.15 14.56 14.16 12.68L14.16 12.68L14.19 9.13L13.32 9.13L13.32 8.85L13.32 8.85Q14.25 8.44 14.79 7.10L14.79 7.10L15.11 7.10L15.11 8.65L17.04 8.65L16.99 9.15L15.10 9.15L15.08 12.28L15.08 12.28Q15.08 13.11 15.30 13.42L15.30 13.42L15.30 13.42Q15.52 13.73 16.00 13.73L16.00 13.73L16.00 13.73Q16.47 13.73 16.93 13.40L16.93 13.40L17.08 13.28L17.21 13.58L17.21 13.58Q16.90 14.03 16.44 14.30L16.44 14.30L16.44 14.30Q15.98 14.56 15.47 14.56ZM19.06 6.51L17.81 6.28L17.86 5.89L21.29 5.89L21.23 6.28L20.08 6.49L20.08 9.80L24.68 9.80L24.68 6.51L23.43 6.28L23.49 5.89L26.91 5.89L26.84 6.28L25.70 6.49L25.70 13.78L26.95 13.97L26.89 14.40L23.48 14.40L23.55 14L24.68 13.74L24.68 10.35L20.08 10.36L20.08 13.78L21.35 13.97L21.27 14.40L17.87 14.40L17.91 14L19.06 13.74L19.06 6.51ZM28.75 10.93L28.75 10.93L31.15 10.77L31.15 10.77Q31.20 10.64 31.20 10.12L31.20 10.12L31.20 10.12Q31.20 9.60 30.91 9.24L30.91 9.24L30.91 9.24Q30.62 8.87 30.08 8.87L30.08 8.87L30.08 8.87Q29.55 8.87 29.17 9.40L29.17 9.40L29.17 9.40Q28.78 9.94 28.75 10.93ZM32.21 13.38L32.34 13.69L32.34 13.69Q31.55 14.60 30.23 14.60L30.23 14.60L30.23 14.60Q29.22 14.60 28.50 13.82L28.50 13.82L28.50 13.82Q27.77 13.04 27.77 11.53L27.77 11.53L27.77 11.53Q27.77 10.79 28.01 10.17L28.01 10.17L28.01 10.17Q28.24 9.55 28.62 9.16L28.62 9.16L28.62 9.16Q29.43 8.34 30.45 8.34L30.45 8.34L30.45 8.34Q31.24 8.34 31.70 8.86L31.70 8.86L31.70 8.86Q32.16 9.38 32.16 10.42L32.16 10.42L32.16 10.42Q32.16 10.86 32.05 11.31L32.05 11.31L28.74 11.35L28.74 11.35Q28.77 12.37 29.24 13.12L29.24 13.12L29.24 13.12Q29.72 13.86 30.61 13.86L30.61 13.86L30.61 13.86Q31.51 13.86 32.21 13.38L32.21 13.38ZM36.11 14.40L33.09 14.40L33.15 14.02L34.21 13.80L34.21 6.49L33.14 6.21L33.18 5.86L34.97 5.71L35.09 5.82L35.09 13.80L36.19 14.01L36.11 14.40ZM39.83 14.40L36.93 14.40L36.99 14.03L38.03 13.81L38.03 9.25L36.96 8.98L37.00 8.62L38.83 8.42L38.92 8.51L38.84 9.42L38.90 9.42L38.90 9.42Q39.27 8.97 39.83 8.64L39.83 8.64L39.83 8.64Q40.39 8.32 40.96 8.32L40.96 8.32L40.96 8.32Q41.54 8.32 41.93 8.61L41.93 8.61L41.93 8.61Q42.33 8.90 42.45 9.45L42.45 9.45L42.53 9.45L42.53 9.45Q42.88 9.00 43.43 8.67L43.43 8.67L43.43 8.67Q43.98 8.35 44.58 8.35L44.58 8.35L44.58 8.35Q45.45 8.35 45.82 8.86L45.82 8.86L45.82 8.86Q46.20 9.37 46.20 10.32L46.20 10.32L46.20 13.80L47.17 13.99L47.08 14.38L44.37 14.38L44.41 14.03L45.29 13.81L45.29 10.48L45.29 10.48Q45.29 9.80 44.98 9.43L44.98 9.43L44.98 9.43Q44.67 9.06 44.09 9.06L44.09 9.06L44.09 9.06Q43.33 9.06 42.56 9.88L42.56 9.88L42.56 13.81L43.51 14L43.46 14.40L40.74 14.40L40.79 14.03L41.70 13.81L41.70 10.48L41.70 10.48Q41.70 9.84 41.38 9.45L41.38 9.45L41.38 9.45Q41.06 9.06 40.56 9.06L40.56 9.06L40.56 9.06Q39.56 9.06 38.92 9.84L38.92 9.84L38.92 13.81L39.90 14L39.83 14.40ZM48.88 10.93L48.88 10.93L51.28 10.77L51.28 10.77Q51.32 10.64 51.32 10.12L51.32 10.12L51.32 10.12Q51.32 9.60 51.03 9.24L51.03 9.24L51.03 9.24Q50.74 8.87 50.21 8.87L50.21 8.87L50.21 8.87Q49.68 8.87 49.29 9.40L49.29 9.40L49.29 9.40Q48.90 9.94 48.88 10.93ZM52.34 13.38L52.47 13.69L52.47 13.69Q51.68 14.60 50.35 14.60L50.35 14.60L50.35 14.60Q49.35 14.60 48.62 13.82L48.62 13.82L48.62 13.82Q47.90 13.04 47.90 11.53L47.90 11.53L47.90 11.53Q47.90 10.79 48.13 10.17L48.13 10.17L48.13 10.17Q48.36 9.55 48.75 9.16L48.75 9.16L48.75 9.16Q49.55 8.34 50.58 8.34L50.58 8.34L50.58 8.34Q51.37 8.34 51.83 8.86L51.83 8.86L51.83 8.86Q52.29 9.38 52.29 10.42L52.29 10.42L52.29 10.42Q52.29 10.86 52.17 11.31L52.17 11.31L48.86 11.35L48.86 11.35Q48.89 12.37 49.37 13.12L49.37 13.12L49.37 13.12Q49.84 13.86 50.74 13.86L50.74 13.86L50.74 13.86Q51.63 13.86 52.34 13.38L52.34 13.38ZM55.41 14.56L55.41 14.56L55.41 14.56Q54.09 14.56 54.10 12.68L54.10 12.68L54.13 9.13L53.26 9.13L53.26 8.85L53.26 8.85Q54.18 8.44 54.72 7.10L54.72 7.10L55.04 7.10L55.04 8.65L56.98 8.65L56.92 9.15L55.04 9.15L55.02 12.28L55.02 12.28Q55.02 13.11 55.23 13.42L55.23 13.42L55.23 13.42Q55.45 13.73 55.93 13.73L55.93 13.73L55.93 13.73Q56.41 13.73 56.87 13.40L56.87 13.40L57.02 13.28L57.15 13.58L57.15 13.58Q56.83 14.03 56.37 14.30L56.37 14.30L56.37 14.30Q55.91 14.56 55.41 14.56ZM58.55 14.62L58.55 14.62L58.55 14.62Q58.27 14.62 58.10 14.40L58.10 14.40L58.10 14.40Q57.93 14.18 57.93 13.85L57.93 13.85L57.93 13.85Q57.93 13.51 58.10 13.32L58.10 13.32L58.10 13.32Q58.26 13.13 58.54 13.13L58.54 13.13L58.54 13.13Q58.82 13.13 59.00 13.32L59.00 13.32L59.00 13.32Q59.18 13.52 59.18 13.86L59.18 13.86L59.18 13.86Q59.18 14.19 59.01 14.40L59.01 14.40L59.01 14.40Q58.84 14.62 58.55 14.62ZM63.43 14.40L60.40 14.40L60.48 14.02L61.52 13.80L61.52 9.12L60.48 8.83L60.53 8.48L62.30 8.33L62.41 8.44L62.41 13.80L63.51 14.01L63.43 14.40ZM61.89 6.92L61.89 6.92L61.89 6.92Q61.62 6.92 61.47 6.72L61.47 6.72L61.47 6.72Q61.31 6.52 61.31 6.20L61.31 6.20L61.31 6.20Q61.31 5.89 61.47 5.69L61.47 5.69L61.47 5.69Q61.63 5.50 61.89 5.50L61.89 5.50L61.89 5.50Q62.15 5.50 62.31 5.69L62.31 5.69L62.31 5.69Q62.47 5.89 62.47 6.21L62.47 6.21L62.47 6.21Q62.47 6.53 62.32 6.73L62.32 6.73L62.32 6.73Q62.16 6.92 61.89 6.92ZM66.25 14.56L66.25 14.56L66.25 14.56Q64.93 14.56 64.94 12.68L64.94 12.68L64.97 9.13L64.10 9.13L64.10 8.85L64.10 8.85Q65.02 8.44 65.56 7.10L65.56 7.10L65.88 7.10L65.88 8.65L67.82 8.65L67.76 9.15L65.88 9.15L65.86 12.28L65.86 12.28Q65.86 13.11 66.08 13.42L66.08 13.42L66.08 13.42Q66.29 13.73 66.77 13.73L66.77 13.73L66.77 13.73Q67.25 13.73 67.71 13.40L67.71 13.40L67.86 13.28L67.99 13.58L67.99 13.58Q67.68 14.03 67.21 14.30L67.21 14.30L67.21 14.30Q66.75 14.56 66.25 14.56Z"></path></g><!----><g data-v-423bf9ae="" id="afdf7a8f-5855-44e3-86fe-bd92e13c1d19" transform="matrix(1.2901746849065765,0,0,1.2901746849065765,-7.484598936003479,-19.38773260152749)" stroke="none" fill="#E50915"><path d="M54.062 84.879a25.87 25.87 0 0 1-7.499-1.137c-13.656-4.139-23.1-4.756-27.515-4.756-2.234 0-3.411.154-3.422.156l-1.427.191-.458-1.365c-.039-.114-3.916-11.757-5.921-18.698-2.077-7.188-1.788-13.063-1.775-13.31l.055-.348c8.016-30.491 35.583-30.491 47.354-30.491l2.308.003c11.934 0 18.562 15.906 20.102 20.101l18.112 3.59-.519 1.815c-.939 3.29-6.937 5.893-20.7 8.983-2.231.501-2.855 1.064-2.99 1.218.077.208.4.591.697.815l.118.097c5.646 5.031 7.451 12.148 4.827 19.035-3.212 8.433-11.792 14.101-21.347 14.101zM19.048 75.51c4.607 0 14.438.637 28.523 4.904 2.162.656 4.345.988 6.489.988h.001c7.996 0 15.438-4.877 18.1-11.861 2.112-5.547.712-11.066-3.844-15.158-.479-.372-2.435-2.048-1.973-4.258.577-2.764 4.396-3.621 5.65-3.903 9.58-2.15 14.101-3.859 16.231-5.001l-15.014-2.976-.315-.97c-.061-.187-6.204-18.674-17.136-18.674l-2.308-.003c-18.081 0-37.432 3.298-43.943 27.714-.027.962-.073 6.036 1.648 11.993 1.592 5.508 4.384 14.039 5.45 17.27a42.537 42.537 0 0 1 2.441-.065zm38.266.543c-4.641 0-8.415-3.773-8.415-8.416 0-4.639 3.774-8.414 8.415-8.414s8.415 3.775 8.415 8.414c0 4.642-3.774 8.416-8.415 8.416zm0-13.354a4.943 4.943 0 0 0-4.938 4.938 4.944 4.944 0 0 0 4.938 4.939 4.943 4.943 0 0 0 4.938-4.939 4.942 4.942 0 0 0-4.938-4.938z"></path></g><!----></svg>