<svg data-v-fde0c5aa="" xmlns="http://www.w3.org/2000/svg" viewBox="0 0 300 300" class="iconLeft"><!----><defs data-v-fde0c5aa=""><!----></defs><rect data-v-fde0c5aa="" fill="#000000" x="0" y="0" width="300px" height="300px" class="logo-background-square"></rect><defs data-v-fde0c5aa=""><!----></defs><g data-v-fde0c5aa="" id="af2f3867-074a-46db-9d67-fee1f20e677e" fill="#ffffff" transform="matrix(1.8566750196419615,0,0,1.8566750196419615,101.7555756458594,130.63487986385374)"><path d="M7.42 9.37C7.42 7.88 6.64 6.86 5.17 6.86C4.28 6.86 3.53 7.34 2.90 7.83L2.95 7L2.67 6.93L0.52 7.14L0.52 7.57L1.65 7.69L1.65 13.41L0.53 13.57L0.53 14L3.93 14L3.93 13.57L2.95 13.41L2.95 9.70C2.95 8.95 2.90 8.37 2.90 8.37C2.90 8.37 3.67 7.90 4.68 7.90C5.68 7.90 6.12 8.53 6.12 9.69L6.12 13.41L5.14 13.57L5.14 14L8.54 14L8.54 13.57L7.42 13.41ZM15.39 10.40C15.58 8.13 14.66 6.86 12.71 6.86C10.95 6.86 9.48 8.30 9.48 10.63C9.48 12.67 10.74 14.14 12.75 14.14C14.21 14.14 15.11 13.41 15.11 13.41L15.11 12.94C15.11 12.94 14.27 13.27 13.31 13.27C11.79 13.27 10.85 12.07 10.81 10.40ZM12.66 7.57C13.86 7.57 14.10 8.55 14.11 9.66L10.84 9.74C10.96 8.41 11.63 7.57 12.66 7.57ZM16.55 7.63L17.51 7.64C17.49 7.81 17.46 8.37 17.46 8.78L17.46 11.94C17.46 13.51 18.20 14.14 19.31 14.14C20.40 14.14 21.14 13.52 21.14 13.52L21.14 13.01C21.14 13.01 20.55 13.27 19.82 13.27C19.07 13.27 18.75 12.81 18.75 11.93L18.75 7.66L21.13 7.77L21.13 7L18.75 7L18.76 5.38L18.47 5.38L17.44 7L16.55 7.32ZM30.93 13.38L30.93 4.82L32.05 4.63L32.05 4.20L28.43 4.20L28.43 4.63L29.55 4.82L29.55 8.61L24.60 8.61L24.60 4.82L25.72 4.63L25.72 4.20L22.11 4.20L22.11 4.63L23.23 4.82L23.23 13.38L22.11 13.57L22.11 14L25.72 14L25.72 13.57L24.60 13.38L24.60 9.31L29.55 9.31L29.55 13.38L28.43 13.57L28.43 14L32.05 14L32.05 13.57ZM39.07 10.40C39.27 8.13 38.35 6.86 36.40 6.86C34.64 6.86 33.17 8.30 33.17 10.63C33.17 12.67 34.43 14.14 36.44 14.14C37.90 14.14 38.79 13.41 38.79 13.41L38.79 12.94C38.79 12.94 37.95 13.27 37.00 13.27C35.48 13.27 34.54 12.07 34.50 10.40ZM36.34 7.57C37.55 7.57 37.79 8.55 37.80 9.66L34.52 9.74C34.65 8.41 35.32 7.57 36.34 7.57ZM41.29 13.41L40.17 13.57L40.17 14L43.71 14L43.71 13.57L42.59 13.41L42.59 3.42L42.31 3.35L40.15 3.56L40.15 3.99L41.29 4.13ZM51.31 9.21C51.31 8.95 51.28 8.61 51.24 8.37C51.74 8.12 52.22 7.91 52.85 7.91C53.77 7.91 54.26 8.51 54.26 9.52L54.26 13.40L53.28 13.57L53.28 14L56.69 14L56.69 13.57L55.57 13.40L55.57 9.31C55.57 7.83 54.82 6.86 53.44 6.86C52.40 6.86 51.62 7.39 51.07 7.92C50.76 7.24 50.16 6.86 49.36 6.86C48.44 6.86 47.61 7.34 47.01 7.83L47.07 7L46.79 6.93L44.63 7.14L44.63 7.57L45.77 7.69L45.77 13.40L44.65 13.57L44.65 14L48.05 14L48.05 13.57L47.07 13.40L47.07 9.79C47.07 9.13 47.01 8.37 47.01 8.37C47.50 8.12 48.01 7.91 48.57 7.91C49.60 7.91 50.01 8.58 50.01 9.60L50.01 13.40L49.03 13.57L49.03 14L52.29 14L52.29 13.57L51.31 13.40ZM63.55 10.40C63.74 8.13 62.82 6.86 60.87 6.86C59.11 6.86 57.64 8.30 57.64 10.63C57.64 12.67 58.90 14.14 60.91 14.14C62.37 14.14 63.27 13.41 63.27 13.41L63.27 12.94C63.27 12.94 62.43 13.27 61.47 13.27C59.95 13.27 59.01 12.07 58.97 10.40ZM60.82 7.57C62.02 7.57 62.26 8.55 62.27 9.66L59.00 9.74C59.12 8.41 59.79 7.57 60.82 7.57ZM64.71 7.63L65.67 7.64C65.65 7.81 65.62 8.37 65.62 8.78L65.62 11.94C65.62 13.51 66.36 14.14 67.47 14.14C68.56 14.14 69.30 13.52 69.30 13.52L69.30 13.01C69.30 13.01 68.71 13.27 67.98 13.27C67.23 13.27 66.91 12.81 66.91 11.93L66.91 7.66L69.29 7.77L69.29 7L66.91 7L66.92 5.38L66.63 5.38L65.60 7L64.71 7.32ZM71.27 14.21C71.81 14.21 72.16 13.87 72.16 13.30C72.16 12.78 71.86 12.46 71.36 12.46C70.83 12.46 70.46 12.78 70.46 13.33C70.46 13.86 70.80 14.21 71.27 14.21ZM73.42 17.51L76.96 17.51L76.96 17.08L75.84 16.93L75.84 13.76C75.84 13.76 76.34 14.14 77.25 14.14C79.35 14.14 80.67 12.64 80.67 10.12C80.67 8.40 79.79 6.86 78.01 6.86C77.06 6.86 76.31 7.36 75.80 7.83L75.84 7L75.56 6.93L73.40 7.13L73.40 7.56L74.54 7.67L74.54 16.93L73.42 17.08ZM77.10 13.37C76.34 13.37 75.84 13.03 75.84 13.03L75.84 9.79C75.84 9.10 75.80 8.51 75.78 8.39C76.23 8.09 76.83 7.90 77.45 7.90C78.78 7.90 79.31 8.86 79.31 10.64C79.31 12.31 78.53 13.37 77.10 13.37ZM82.81 13.41L81.69 13.57L81.69 14L85.23 14L85.23 13.57L84.11 13.41L84.11 3.42L83.83 3.35L81.68 3.56L81.68 3.99L82.81 4.13Z"></path></g><defs data-v-fde0c5aa=""><!----></defs><g data-v-fde0c5aa="" id="a0239dfc-09f2-4655-a523-b240b064d9ac" stroke="none" fill="#F60000" transform="matrix(0.5653226795000467,0,0,0.5653226795000467,36.59428474338598,121.73386494673022)"><path d="M54.062 84.879a25.87 25.87 0 0 1-7.499-1.137c-13.656-4.139-23.1-4.756-27.515-4.756-2.234 0-3.411.154-3.422.156l-1.427.191-.458-1.365c-.039-.114-3.916-11.757-5.921-18.698-2.077-7.188-1.788-13.063-1.775-13.31l.055-.348c8.016-30.491 35.583-30.491 47.354-30.491l2.308.003c11.934 0 18.562 15.906 20.102 20.101l18.112 3.59-.519 1.815c-.939 3.29-6.937 5.893-20.7 8.983-2.231.501-2.855 1.064-2.99 1.218.077.208.4.591.697.815l.118.097c5.646 5.031 7.451 12.148 4.827 19.035-3.212 8.433-11.792 14.101-21.347 14.101zM19.048 75.51c4.607 0 14.438.637 28.523 4.904 2.162.656 4.345.988 6.489.988h.001c7.996 0 15.438-4.877 18.1-11.861 2.112-5.547.712-11.066-3.844-15.158-.479-.372-2.435-2.048-1.973-4.258.577-2.764 4.396-3.621 5.65-3.903 9.58-2.15 14.101-3.859 16.231-5.001l-15.014-2.976-.315-.97c-.061-.187-6.204-18.674-17.136-18.674l-2.308-.003c-18.081 0-37.432 3.298-43.943 27.714-.027.962-.073 6.036 1.648 11.993 1.592 5.508 4.384 14.039 5.45 17.27a42.537 42.537 0 0 1 2.441-.065zm38.266.543c-4.641 0-8.415-3.773-8.415-8.416 0-4.639 3.774-8.414 8.415-8.414s8.415 3.775 8.415 8.414c0 4.642-3.774 8.416-8.415 8.416zm0-13.354a4.943 4.943 0 0 0-4.938 4.938 4.944 4.944 0 0 0 4.938 4.939 4.943 4.943 0 0 0 4.938-4.939 4.942 4.942 0 0 0-4.938-4.938z"></path></g><!----></svg>