<svg data-v-fde0c5aa="" xmlns="http://www.w3.org/2000/svg" viewBox="0 0 300 300" class="iconLeft"><!----><defs data-v-fde0c5aa=""><!----></defs><rect data-v-fde0c5aa="" fill="#000000" x="0" y="0" width="300px" height="300px" class="logo-background-square"></rect><defs data-v-fde0c5aa=""><!----></defs><g data-v-fde0c5aa="" id="9fe72da1-2e6f-4c14-9504-8c1f7256efa5" fill="#ffffff" transform="matrix(1.7534982070773109,0,0,1.7534982070773109,86.57902464442802,134.70072789241053)"><path d="M3.58 13.86L3.58 13.86Q2.02 13.86 1.26 12.87L1.26 12.87L1.26 12.87Q0.50 11.89 0.50 10.32L0.50 10.32L0.50 10.32Q0.50 8.69 1.25 7.70L1.25 7.70L1.25 7.70Q2.00 6.71 3.58 6.71L3.58 6.71L3.58 6.71Q4.24 6.71 4.77 6.81L4.77 6.81L4.77 6.81Q5.29 6.92 5.89 7.15L5.89 7.15L5.63 8.95L5.07 8.95L4.75 7.67L4.75 7.67Q4.20 7.49 3.67 7.49L3.67 7.49L3.67 7.49Q2.73 7.49 2.37 8.20L2.37 8.20L2.37 8.20Q2.02 8.92 2.02 10.28L2.02 10.28L2.02 10.28Q2.02 11.68 2.40 12.35L2.40 12.35L2.40 12.35Q2.79 13.02 3.75 13.02L3.75 13.02L3.75 13.02Q4.80 13.02 5.84 12.70L5.84 12.70L5.92 13.20L5.92 13.20Q5.35 13.52 4.79 13.69L4.79 13.69L4.79 13.69Q4.23 13.86 3.58 13.86L3.58 13.86ZM14.59 13.72L10.93 13.72L10.93 13.22L12.00 12.91L12.00 8.53L12.00 8.53Q12.00 8.16 11.89 7.97L11.89 7.97L11.89 7.97Q11.79 7.78 11.52 7.71L11.52 7.71L11.52 7.71Q11.26 7.64 10.74 7.64L10.74 7.64L10.74 7.64Q9.79 7.64 9.09 7.85L9.09 7.85L9.09 12.91L10.15 13.22L10.15 13.72L6.48 13.72L6.48 13.19L7.69 12.91L7.69 4.63L6.48 4.49L6.48 4.06L8.65 3.53L9.09 3.53L9.09 7.27L9.09 7.27Q9.59 7.06 10.28 6.88L10.28 6.88L10.28 6.88Q10.96 6.71 11.56 6.71L11.56 6.71L11.56 6.71Q12.36 6.71 12.87 7.07L12.87 7.07L12.87 7.07Q13.38 7.43 13.38 8.22L13.38 8.22L13.38 12.91L14.59 13.22L14.59 13.72ZM18.55 13.87L18.55 13.87Q16.90 13.87 16.11 12.94L16.11 12.94L16.11 12.94Q15.33 12.01 15.33 10.32L15.33 10.32L15.33 10.32Q15.33 8.51 16.13 7.61L16.13 7.61L16.13 7.61Q16.94 6.71 18.40 6.71L18.40 6.71L18.40 6.71Q19.78 6.71 20.43 7.35L20.43 7.35L20.43 7.35Q21.08 7.99 21.08 9.37L21.08 9.37L21.08 9.37Q21.08 9.73 21.04 10.14L21.04 10.14L16.84 10.14L16.84 10.54L16.84 10.54Q16.84 11.77 17.37 12.40L17.37 12.40L17.37 12.40Q17.89 13.03 18.86 13.03L18.86 13.03L18.86 13.03Q19.75 13.03 20.90 12.71L20.90 12.71L21 13.20L21 13.20Q20.44 13.55 19.87 13.71L19.87 13.71L19.87 13.71Q19.29 13.87 18.55 13.87L18.55 13.87ZM16.87 9.56L19.63 9.41L19.63 9.10L19.63 9.10Q19.63 8.29 19.36 7.89L19.36 7.89L19.36 7.89Q19.10 7.49 18.48 7.49L18.48 7.49L18.48 7.49Q17.64 7.49 17.28 7.97L17.28 7.97L17.28 7.97Q16.93 8.46 16.87 9.56L16.87 9.56ZM25.52 13.72L21.71 13.72L21.71 13.19L22.93 12.91L22.93 4.63L21.71 4.49L21.71 4.06L23.86 3.53L24.32 3.53L24.32 12.91L25.52 13.19L25.52 13.72ZM26.14 13.72L26.14 13.26L27.34 12.91L27.34 7.81L26.14 7.67L26.14 7.22L28.28 6.71L28.73 6.71L28.73 7.27L28.73 7.27Q29.20 7.06 29.86 6.88L29.86 6.88L29.86 6.88Q30.52 6.71 31.09 6.71L31.09 6.71L31.09 6.71Q31.56 6.71 31.95 6.85L31.95 6.85L31.95 6.85Q32.35 7.00 32.58 7.29L32.58 7.29L32.58 7.29Q34.12 6.71 35.20 6.71L35.20 6.71L35.20 6.71Q36.04 6.71 36.50 7.08L36.50 7.08L36.50 7.08Q36.96 7.45 36.96 8.22L36.96 8.22L36.96 12.91L38.19 13.26L38.19 13.72L34.59 13.72L34.59 13.26L35.57 12.91L35.57 8.53L35.57 8.53Q35.57 8.18 35.47 7.99L35.47 7.99L35.47 7.99Q35.36 7.80 35.10 7.72L35.10 7.72L35.10 7.72Q34.83 7.64 34.31 7.64L34.31 7.64L34.31 7.64Q33.46 7.64 32.80 7.85L32.80 7.85L32.80 7.85Q32.84 7.99 32.84 8.25L32.84 8.25L32.84 12.91L33.82 13.26L33.82 13.72L30.48 13.72L30.48 13.26L31.46 12.91L31.46 8.53L31.46 8.53Q31.46 8.16 31.35 7.97L31.35 7.97L31.35 7.97Q31.25 7.78 30.97 7.71L30.97 7.71L30.97 7.71Q30.70 7.64 30.16 7.64L30.16 7.64L30.16 7.64Q29.79 7.64 29.40 7.70L29.40 7.70L29.40 7.70Q29.01 7.76 28.73 7.85L28.73 7.85L28.73 12.91L29.69 13.26L29.69 13.72L26.14 13.72ZM40.73 5.66L40.73 5.66Q40.33 5.66 40.05 5.40L40.05 5.40L40.05 5.40Q39.77 5.14 39.77 4.76L39.77 4.76L39.77 4.76Q39.77 4.38 40.06 4.10L40.06 4.10L40.06 4.10Q40.35 3.82 40.73 3.82L40.73 3.82L40.73 3.82Q41.09 3.82 41.38 4.10L41.38 4.10L41.38 4.10Q41.66 4.38 41.66 4.76L41.66 4.76L41.66 4.76Q41.66 5.14 41.38 5.40L41.38 5.40L41.38 5.40Q41.10 5.66 40.73 5.66L40.73 5.66ZM42.63 13.72L38.84 13.72L38.84 13.19L40.04 12.91L40.04 7.81L38.84 7.67L38.84 7.24L40.99 6.71L41.43 6.71L41.43 12.91L42.63 13.19L42.63 13.72ZM46.63 13.19L46.63 13.72L43.18 13.72L43.18 13.19L44.39 12.91L44.39 4.63L43.18 4.49L43.18 4.06L45.35 3.53L45.78 3.53L45.78 12.91L46.63 13.19ZM50.90 13.20L50.90 13.72L47.63 13.72L47.63 13.19L48.24 12.95L45.96 10.11L47.99 7.60L46.87 7.34L46.87 6.85L50.47 6.85L50.47 7.34L49.14 7.62L47.35 9.77L49.90 12.92L50.90 13.20ZM54.56 6.71L54.56 6.71Q56.27 6.71 57.07 7.70L57.07 7.70L57.07 7.70Q57.88 8.69 57.88 10.32L57.88 10.32L57.88 10.32Q57.88 11.89 57.06 12.87L57.06 12.87L57.06 12.87Q56.25 13.86 54.56 13.86L54.56 13.86L54.56 13.86Q52.88 13.86 52.06 12.87L52.06 12.87L52.06 12.87Q51.24 11.89 51.24 10.32L51.24 10.32L51.24 10.32Q51.24 8.71 52.05 7.71L52.05 7.71L52.05 7.71Q52.86 6.71 54.56 6.71L54.56 6.71ZM56.36 10.28L56.36 10.28Q56.36 8.93 55.96 8.20L55.96 8.20L55.96 8.20Q55.55 7.46 54.52 7.46L54.52 7.46L54.52 7.46Q53.54 7.46 53.14 8.20L53.14 8.20L53.14 8.20Q52.75 8.95 52.75 10.28L52.75 10.28L52.75 10.28Q52.75 11.62 53.16 12.36L53.16 12.36L53.16 12.36Q53.56 13.10 54.60 13.10L54.60 13.10L54.60 13.10Q55.61 13.10 55.99 12.37L55.99 12.37L55.99 12.37Q56.36 11.63 56.36 10.28L56.36 10.28ZM68.85 7.35L67.97 7.63L65.95 13.78L65.07 13.92L63.57 9.52L62.15 13.78L61.26 13.92L59.09 7.62L58.32 7.35L58.32 6.85L61.35 6.85L61.35 7.36L60.52 7.62L61.92 12.00L63.36 7.49L64.25 7.36L65.74 12.00L67.05 7.63L65.94 7.36L65.94 6.85L68.85 6.85L68.85 7.35ZM71.82 7.49L71.82 7.49Q71.19 7.49 70.84 7.74L70.84 7.74L70.84 7.74Q70.49 7.98 70.49 8.41L70.49 8.41L70.49 8.41Q70.49 8.82 70.69 9.04L70.69 9.04L70.69 9.04Q70.88 9.25 71.39 9.44L71.39 9.44L72.58 9.84L72.58 9.84Q73.43 10.14 73.76 10.56L73.76 10.56L73.76 10.56Q74.09 10.98 74.09 11.72L74.09 11.72L74.09 11.72Q74.09 12.71 73.40 13.29L73.40 13.29L73.40 13.29Q72.70 13.86 71.40 13.86L71.40 13.86L71.40 13.86Q70.90 13.86 70.30 13.76L70.30 13.76L70.30 13.76Q69.71 13.66 69.24 13.50L69.24 13.50L69.44 11.77L69.99 11.77L70.28 12.94L70.28 12.94Q70.84 13.10 71.43 13.10L71.43 13.10L71.43 13.10Q72.87 13.10 72.87 11.97L72.87 11.97L72.87 11.97Q72.87 11.63 72.65 11.42L72.65 11.42L72.65 11.42Q72.42 11.20 71.82 10.99L71.82 10.99L70.74 10.63L70.74 10.63Q70 10.35 69.66 9.91L69.66 9.91L69.66 9.91Q69.33 9.48 69.33 8.76L69.33 8.76L69.33 8.76Q69.33 7.78 69.96 7.25L69.96 7.25L69.96 7.25Q70.59 6.71 71.85 6.71L71.85 6.71L71.85 6.71Q72.84 6.71 73.82 7.14L73.82 7.14L73.61 8.72L73.08 8.72L72.79 7.70L72.79 7.70Q72.60 7.62 72.33 7.55L72.33 7.55L72.33 7.55Q72.06 7.49 71.82 7.49L71.82 7.49ZM78.41 13.19L78.41 13.72L74.96 13.72L74.96 13.19L76.17 12.91L76.17 4.63L74.96 4.49L74.96 4.06L77.13 3.53L77.56 3.53L77.56 12.91L78.41 13.19ZM82.68 13.20L82.68 13.72L79.41 13.72L79.41 13.19L80.02 12.95L77.74 10.11L79.77 7.60L78.65 7.34L78.65 6.85L82.25 6.85L82.25 7.34L80.92 7.62L79.13 9.77L81.68 12.92L82.68 13.20ZM84.80 5.66L84.80 5.66Q84.41 5.66 84.13 5.40L84.13 5.40L84.13 5.40Q83.85 5.14 83.85 4.76L83.85 4.76L83.85 4.76Q83.85 4.38 84.13 4.10L84.13 4.10L84.13 4.10Q84.42 3.82 84.80 3.82L84.80 3.82L84.80 3.82Q85.16 3.82 85.45 4.10L85.45 4.10L85.45 4.10Q85.74 4.38 85.74 4.76L85.74 4.76L85.74 4.76Q85.74 5.14 85.46 5.40L85.46 5.40L85.46 5.40Q85.18 5.66 84.80 5.66L84.80 5.66ZM86.70 13.72L82.91 13.72L82.91 13.19L84.11 12.91L84.11 7.81L82.91 7.67L82.91 7.24L85.06 6.71L85.50 6.71L85.50 12.91L86.70 13.19L86.70 13.72ZM89.26 12.94L89.26 12.94Q89.26 13.31 88.98 13.58L88.98 13.58L88.98 13.58Q88.70 13.85 88.33 13.85L88.33 13.85L88.33 13.85Q87.95 13.85 87.66 13.58L87.66 13.58L87.66 13.58Q87.37 13.31 87.37 12.94L87.37 12.94L87.37 12.94Q87.37 12.56 87.66 12.28L87.66 12.28L87.66 12.28Q87.95 12.00 88.33 12.00L88.33 12.00L88.33 12.00Q88.70 12.00 88.98 12.27L88.98 12.27L88.98 12.27Q89.26 12.54 89.26 12.94L89.26 12.94ZM91.98 5.66L91.98 5.66Q91.59 5.66 91.31 5.40L91.31 5.40L91.31 5.40Q91.03 5.14 91.03 4.76L91.03 4.76L91.03 4.76Q91.03 4.38 91.32 4.10L91.32 4.10L91.32 4.10Q91.60 3.82 91.98 3.82L91.98 3.82L91.98 3.82Q92.34 3.82 92.63 4.10L92.63 4.10L92.63 4.10Q92.92 4.38 92.92 4.76L92.92 4.76L92.92 4.76Q92.92 5.14 92.64 5.40L92.64 5.40L92.64 5.40Q92.36 5.66 91.98 5.66L91.98 5.66ZM93.88 13.72L90.09 13.72L90.09 13.19L91.29 12.91L91.29 7.81L90.09 7.67L90.09 7.24L92.25 6.71L92.68 6.71L92.68 12.91L93.88 13.19L93.88 13.72ZM98.70 13.55L98.70 13.55Q98.29 13.66 97.62 13.76L97.62 13.76L97.62 13.76Q96.94 13.85 96.57 13.85L96.57 13.85L96.57 13.85Q95.44 13.85 95.44 12.71L95.44 12.71L95.44 7.64L94.42 7.64L94.42 7.10L95.56 6.69L96.18 5.29L96.81 5.29L96.81 6.85L98.90 6.85L98.90 7.76L96.81 7.64L96.81 12.80L98.70 13.08L98.70 13.55Z"></path></g><defs data-v-fde0c5aa=""><!----></defs><g data-v-fde0c5aa="" id="14ccc508-b21c-463e-a5c6-b9e0d3bc2f8b" stroke="none" fill="#F60000" transform="matrix(0.39175825255766394,0,0,0.39175825255766394,37.6399017658021,130.41208662489723)"><path d="M54.062 84.879a25.87 25.87 0 0 1-7.499-1.137c-13.656-4.139-23.1-4.756-27.515-4.756-2.234 0-3.411.154-3.422.156l-1.427.191-.458-1.365c-.039-.114-3.916-11.757-5.921-18.698-2.077-7.188-1.788-13.063-1.775-13.31l.055-.348c8.016-30.491 35.583-30.491 47.354-30.491l2.308.003c11.934 0 18.562 15.906 20.102 20.101l18.112 3.59-.519 1.815c-.939 3.29-6.937 5.893-20.7 8.983-2.231.501-2.855 1.064-2.99 1.218.077.208.4.591.697.815l.118.097c5.646 5.031 7.451 12.148 4.827 19.035-3.212 8.433-11.792 14.101-21.347 14.101zM19.048 75.51c4.607 0 14.438.637 28.523 4.904 2.162.656 4.345.988 6.489.988h.001c7.996 0 15.438-4.877 18.1-11.861 2.112-5.547.712-11.066-3.844-15.158-.479-.372-2.435-2.048-1.973-4.258.577-2.764 4.396-3.621 5.65-3.903 9.58-2.15 14.101-3.859 16.231-5.001l-15.014-2.976-.315-.97c-.061-.187-6.204-18.674-17.136-18.674l-2.308-.003c-18.081 0-37.432 3.298-43.943 27.714-.027.962-.073 6.036 1.648 11.993 1.592 5.508 4.384 14.039 5.45 17.27a42.537 42.537 0 0 1 2.441-.065zm38.266.543c-4.641 0-8.415-3.773-8.415-8.416 0-4.639 3.774-8.414 8.415-8.414s8.415 3.775 8.415 8.414c0 4.642-3.774 8.416-8.415 8.416zm0-13.354a4.943 4.943 0 0 0-4.938 4.938 4.944 4.944 0 0 0 4.938 4.939 4.943 4.943 0 0 0 4.938-4.939 4.942 4.942 0 0 0-4.938-4.938z"></path></g><!----></svg>