<svg id="fd4b094b-ee9e-4f03-aa69-b33fd461c42b" data-name="Layer 1" xmlns="http://www.w3.org/2000/svg" width="703.81722" height="573.37046" viewBox="0 0 703.81722 573.37046"><path d="M710.6639,322.01909h-.164l-94.07127,40.16883-128.70885,54.9597a4.15132,4.15132,0,0,1-3.17971.01638L351.75039,362.07316l-96.38231-39.98853-.14722-.06554h-.16408a5.74247,5.74247,0,0,0-5.736,5.73607V576.86409a5.74247,5.74247,0,0,0,5.736,5.73606H710.6639a5.74247,5.74247,0,0,0,5.736-5.73606V327.75516A5.74247,5.74247,0,0,0,710.6639,322.01909Z" transform="translate(-248.09139 -163.31477)" fill="#fff"/><path d="M711.07286,323.658a.81682.81682,0,0,1-.46775-.14686L483.98245,165.68461a4.10983,4.10983,0,0,0-4.69419.008L254.29805,323.50952a.8196.8196,0,0,1-.94128-1.342L478.34722,164.35067a5.75429,5.75429,0,0,1,6.57193-.0108L711.54182,322.16594a.81961.81961,0,0,1-.469,1.492Z" transform="translate(-248.09139 -163.31477)" fill="#3f3d56"/><polygon points="19.063 165.938 233.765 6.817 450.097 177.26 244.827 298.946 133.384 273.544 19.063 165.938" fill="#e6e6e6"/><path d="M390.88289,537.42153H284.81463a4.95544,4.95544,0,1,1-.01461-9.91086H390.88289a4.95544,4.95544,0,1,1,.01462,9.91086Z" transform="translate(-248.09139 -163.31477)" fill="#f50103"/><path d="M322.86948,516.11616H284.81455a4.95544,4.95544,0,1,1-.01461-9.91086h38.06954a4.95544,4.95544,0,0,1,.0147,9.91086h-.0147Z" transform="translate(-248.09139 -163.31477)" fill="#f50103"/><path d="M484.8761,417.88073a6.19853,6.19853,0,0,1-2.35111-.46056L350.1115,362.47786V190.49925a5.74278,5.74278,0,0,1,5.736-5.73606H609.87316a5.74277,5.74277,0,0,1,5.736,5.73606V362.59789l-.24889.10645-128.06192,54.689A6.24086,6.24086,0,0,1,484.8761,417.88073Z" transform="translate(-248.09139 -163.31477)" fill="#f50103"/><path d="M709.43462,322.01909h-.164l-94.07136,40.16879-128.70885,54.9597a4.15132,4.15132,0,0,1-3.17971.01638l-132.7896-55.0908-96.38231-39.98853-.14722-.06554h-.16416a5.74246,5.74246,0,0,0-5.736,5.73607V576.86409a5.74245,5.74245,0,0,0,5.736,5.73606H709.43462a5.74245,5.74245,0,0,0,5.736-5.73606V327.75516A5.74246,5.74246,0,0,0,709.43462,322.01909Zm4.09721,254.845a4.0988,4.0988,0,0,1-4.09721,4.09717H253.82741a4.0988,4.0988,0,0,1-4.09721-4.09717V327.75516a4.10624,4.10624,0,0,1,3.94156-4.09718l96.84934,40.18518,132.15906,54.83677a5.835,5.835,0,0,0,4.45766-.02457l128.06144-54.68924L709.59862,323.658a4.11048,4.11048,0,0,1,3.93313,4.09718Z" transform="translate(-248.09139 -163.31477)" fill="#3f3d56"/><path d="M464.26159,249.04935H374.12345a6.55551,6.55551,0,0,1,0-13.111h90.13814a6.55551,6.55551,0,0,1,0,13.111Z" transform="translate(-248.09139 -163.31477)" fill="#fff"/><path d="M417.55363,221.18847H374.12345a6.5555,6.5555,0,0,1,0-13.111h43.43018a6.5555,6.5555,0,0,1,0,13.111Z" transform="translate(-248.09139 -163.31477)" fill="#fff"/><path d="M550.27673,314.60434H412.61119a6.5555,6.5555,0,0,1,0-13.111H550.27673a6.5555,6.5555,0,0,1,0,13.111Z" transform="translate(-248.09139 -163.31477)" fill="#fff"/><path d="M550.27673,344.92351H412.61119a6.55551,6.55551,0,1,1,0-13.111H550.27673a6.55551,6.55551,0,1,1,0,13.111Z" transform="translate(-248.09139 -163.31477)" fill="#fff"/></svg>