<svg id="b99f8e3e-2880-46bd-8e44-f4d413898fc5" data-name="Layer 1" xmlns="http://www.w3.org/2000/svg" width="1113.88736"
    height="612.2441" viewBox="0 0 1113.88736 612.2441">
    <title>wordpress</title>
    <rect x="476.90168" y="96.25" width="452" height="93" fill="none" stroke="#3f3d56" stroke-miterlimit="10" />
    <path
        d="M250.22415,372.229C263.11336,352.08825,287.517,338.5,315.5,338.5c41.42136,0,75,29.77306,75,66.5,0,23.48168-13.72626,44.12077-34.45252,55.9533"
        transform="translate(-43.05632 -143.875)" fill="none" stroke="#3f3d56" stroke-miterlimit="10" />
    <rect x="444.90168" y="114.25" width="452" height="93" fill="#F50103" />
    <circle cx="159.17106" cy="18.49996" r="7.00009" fill="#f50057" />
    <circle cx="183.17106" cy="18.49996" r="7.00009" fill="#f50057" />
    <circle cx="207.17106" cy="18.49996" r="7.00009" fill="#f50057" />
    <rect x="140.17142" y="0.5" width="840" height="546" fill="white" stroke="#3f3d56" stroke-miterlimit="10" />
    <line x1="140.17142" y1="30.83505" x2="980.17142" y2="30.83505" fill="none" stroke="#3f3d56"
        stroke-miterlimit="10" />
    <circle cx="161.17106" cy="15.49996" r="7.00009" fill="#F50103" stroke="#3f3d56" stroke-miterlimit="10" />
    <circle cx="185.17106" cy="15.49996" r="7.00009" fill="#F50103" stroke="#3f3d56" stroke-miterlimit="10" />
    <circle cx="209.17106" cy="15.49996" r="7.00009" fill="#F50103" stroke="#3f3d56" stroke-miterlimit="10" />
    <path
        d="M75.27267,348.42356a21.61922,21.61922,0,1,0-26.639-31.90264l8.0969,7.65194L46.32837,320.94a21.53767,21.53767,0,0,0,.42814,16.46985,21.19971,21.19971,0,0,0,3.15322,5.07973A21.6151,21.6151,0,0,0,75.27267,348.42356Z"
        transform="translate(-43.05632 -143.875)" fill="#ffffff" />
    <path
        d="M183.44639,423.47872c-7.89466-5.53929-7.89618-17.16828-5.93507-26.61092s4.95464-19.74456.50306-28.29983c-6.3977-12.29544-23.21458-13.035-37.01248-14.349a130.15616,130.15616,0,0,1-30.04827-6.5136c-3.8984-1.344-7.80228-2.91353-10.99464-5.52363-4.59737-3.75884-7.29414-9.30238-9.81237-14.68041Q77.56317,300.62766,66.25742,273.18"
        transform="translate(-43.05632 -143.875)" fill="none" stroke="#3f3d56" stroke-miterlimit="10" />
    <path
        d="M73.9308,345.7404a21.61922,21.61922,0,1,0-26.639-31.90265l8.0969,7.65194L44.9865,318.25685a21.53767,21.53767,0,0,0,.42814,16.46985,21.19919,21.19919,0,0,0,3.15322,5.07973A21.61509,21.61509,0,0,0,73.9308,345.7404Z"
        transform="translate(-43.05632 -143.875)" fill="none" stroke="#3f3d56" stroke-miterlimit="10" />
    <path
        d="M47.58089,285.78442a21.594,21.594,0,0,1,1.72991-20.66591l8.61043,6.39795-5.3141-10.29993a21.61655,21.61655,0,1,1-5.02624,24.56789Z"
        transform="translate(-43.05632 -143.875)" fill="#F50103" />
    <path
        d="M45.79173,282.20686A21.594,21.594,0,0,1,47.52164,261.541l8.61043,6.398L50.818,257.639a21.61656,21.61656,0,1,1-5.02623,24.56789Z"
        transform="translate(-43.05632 -143.875)" fill="none" stroke="#3f3d56" stroke-miterlimit="10" />
    <path
        d="M138.41288,357.002a21.61661,21.61661,0,0,0-12.83334-40.99231l4.08388,7.915-8.70985-6.47535a.37577.37577,0,0,0-.05415.023A21.61777,21.61777,0,1,0,138.41288,357.002Z"
        transform="translate(-43.05632 -143.875)" fill="#F50103" />
    <path
        d="M136.47525,353.49867a21.61661,21.61661,0,0,0-12.83334-40.9923l4.08388,7.915-8.70986-6.47536a.378.378,0,0,0-.05415.02306,21.61777,21.61777,0,1,0,17.51347,39.52961Z"
        transform="translate(-43.05632 -143.875)" fill="none" stroke="#3f3d56" stroke-miterlimit="10" />
    <path
        d="M147.04276,398.48755a21.60757,21.60757,0,1,0-8.71949-15.097l16.98867,3.78678-14.82289,3.56438A21.41544,21.41544,0,0,0,147.04276,398.48755Z"
        transform="translate(-43.05632 -143.875)" fill="#ffffff" />
    <path
        d="M145.70089,395.80438a21.60757,21.60757,0,1,0-8.71949-15.097l16.98867,3.78678-14.82289,3.56438A21.41544,21.41544,0,0,0,145.70089,395.80438Z"
        transform="translate(-43.05632 -143.875)" fill="none" stroke="#3f3d56" stroke-miterlimit="10" />

 


    <path
        d="M158.27267,262.42356a21.61922,21.61922,0,1,0-26.639-31.90264l8.0969,7.65194L129.32837,234.94a21.53767,21.53767,0,0,0,.42814,16.46985,21.19971,21.19971,0,0,0,3.15322,5.07973A21.6151,21.6151,0,0,0,158.27267,262.42356Z"
        transform="translate(-43.05632 -143.875)" fill="#ffffff" />
    <path d="M182.959,256.18177c-4.59737-3.75884-7.29414-9.30238-9.81237-14.68041q-12.58345-26.8737-23.8892-54.32135"
        transform="translate(-43.05632 -143.875)" fill="none" stroke="#3f3d56" stroke-miterlimit="10" />
    <path
        d="M156.9308,259.7404a21.61922,21.61922,0,1,0-26.639-31.90265l8.0969,7.65194-10.40218-3.23284a21.53767,21.53767,0,0,0,.42814,16.46985,21.19919,21.19919,0,0,0,3.15322,5.07973A21.61509,21.61509,0,0,0,156.9308,259.7404Z"
        transform="translate(-43.05632 -143.875)" fill="none" stroke="#3f3d56" stroke-miterlimit="10" />
    <path
        d="M130.58089,199.78442a21.594,21.594,0,0,1,1.72991-20.66591l8.61043,6.398-5.3141-10.29993a21.61655,21.61655,0,1,1-5.02624,24.56789Z"
        transform="translate(-43.05632 -143.875)" fill="#F50103" />
    <path
        d="M128.79173,196.20686a21.594,21.594,0,0,1,1.72991-20.66591l8.61043,6.398L133.818,171.639a21.61656,21.61656,0,1,1-5.02623,24.56789Z"
        transform="translate(-43.05632 -143.875)" fill="none" stroke="#3f3d56" stroke-miterlimit="10" />
    <line x1="403.89774" y1="30.83505" x2="403.89774" y2="547.27591" fill="none" stroke="#3f3d56"
        stroke-miterlimit="10" />
    <rect x="498.40168" y="284.75" width="147" height="20" fill="#f2f2f2" />
    <rect x="729.40168" y="284.75" width="147" height="20" fill="#F50103" />
    <rect x="506.40168" y="274.75" width="147" height="20" fill="none" stroke="#3f3d56" stroke-miterlimit="10" />
    <rect x="498.40168" y="439.75" width="147" height="20" fill="#f2f2f2" />
    <rect x="506.40168" y="429.75" width="147" height="20" fill="#F50103" stroke="#3f3d56" stroke-miterlimit="10" />
    <rect x="498.90168" y="360.25" width="378" height="20" fill="#f2f2f2" />
    <rect x="506.90168" y="352.25" width="378" height="20" fill="none" stroke="#3f3d56" stroke-miterlimit="10" />
    <rect x="737.40168" y="274.75" width="147" height="20" fill="none" stroke="#F50103" stroke-miterlimit="10" />
   
  

    <path d="M1052.25767,699.95721s10.723-12.595,19.50133,1.145l-1.47214,8.80255h-18.02919Z"
        transform="translate(-43.05632 -143.875)" opacity="0.1" />
 
   


  
  

  



  
  
  

    <path
        d="M1046.7326,459.28944a6.51339,6.51339,0,0,0-.5627,1.40015l.99889-25.49964.314-5.08163C1048.07173,437.82016,1049.08367,455.08893,1046.7326,459.28944Z"
        transform="translate(-43.05632 -143.875)" opacity="0.1" />
  
 
   
 

  


    <path d="M977.8146,628.09492s-12.21332,9.05094-15.59379,9.70523S977.8146,628.09492,977.8146,628.09492Z"
        transform="translate(-43.05632 -143.875)" opacity="0.1" />
   
   
   

    <g opacity="0.1">
    
        <path d="M974.98919,350.51078c.10561-.0643.195-.127.28715-.19.01712-.0149.03049-.03221.04792-.0469Z"
            transform="translate(-43.05632 -143.875)" />
        <path
            d="M977.0211,348.1398c-.09214.063-.18154.12574-.28715.19l.33507-.23694c-.01743.01469-.0308.032-.04792.04691,2.06887-1.41469.86384-2.54547,1.67722-5.20026a40.34835,40.34835,0,0,1,5.32256-11.66747,23.1343,23.1343,0,0,0-1.61383,1.98764,39.94176,39.94176,0,0,0-5.45349,11.86078,18.56117,18.56117,0,0,0-.42682,3.53473A4.17039,4.17039,0,0,1,977.0211,348.1398Z"
            transform="translate(-43.05632 -143.875)" />
        <path
            d="M1063.72766,401.50083a19.47132,19.47132,0,0,1-3.29794.76858,6.36053,6.36053,0,0,0-3.64851,3.22129,5.23728,5.23728,0,0,1,1.90375-1.04035,19.47108,19.47108,0,0,0,3.29794-.76857,3.71942,3.71942,0,0,0,1.80756-2.21615C1063.76916,401.47687,1063.7493,401.49005,1063.72766,401.50083Z"
            transform="translate(-43.05632 -143.875)" />
        <path
            d="M1045.60533,426.163q.03762,1.13406.14592,2.26425a4.91225,4.91225,0,0,0,2.58437-1.64676,7.28053,7.28053,0,0,0,.86679-1.34871A3.88793,3.88793,0,0,1,1045.60533,426.163Z"
            transform="translate(-43.05632 -143.875)" />
    </g>
    <path d="M967.64432,466.50791s5.26224-2.13014,8.35282-1.657" transform="translate(-43.05632 -143.875)"
        opacity="0.1" />


  
    <path
        d="M224.36673,418.99808c0,26.13213,17.16823,48.71308,42.0635,59.41566l-35.6018-86.28266a59.38557,59.38557,0,0,0-6.4617,26.867Zm125.01888-3.33137c0-8.15883-3.31321-13.80909-6.15494-18.207-3.78329-5.438-7.328-10.04309-7.328-15.48106,0-6.06857,5.202-11.71757,12.53142-11.71757.3309,0,.64476.03643.96855.05276a79.973,79.973,0,0,0-50.40123-17.33015c-26.074,0-49.01373,11.83314-62.3589,29.7562,1.751.04648,3.40268.07788,4.803.07788,7.80658,0,19.89066-.83786,19.89066-.83786,4.0233-.20978,4.49763,5.01715.48,5.438,0,0-4.0446.42082-8.54364.62934l27.17888,71.50757L296.786,416.2257,285.15637,388.046c-4.019-.20853-7.82646-.62934-7.82646-.62934-4.02188-.20853-3.55039-5.64775.47149-5.438,0,0,12.3255.83787,19.65918.83787,7.80516,0,19.89065-.83787,19.89065-.83787,4.02613-.20978,4.499,5.01715.47859,5.438,0,0-4.05169.42081-8.54222.62934l26.97154,70.96617,7.443-22.00436c3.228-9.13111,5.68345-15.68958,5.68345-21.3411Z"
        transform="translate(-43.05632 -143.875)" fill="#F50103" />
    <path
        d="M300.31082,424.7727l-22.393,57.55528a83.94664,83.94664,0,0,0,45.8681-1.05142,5.38774,5.38774,0,0,1-.53114-.90947ZM364.49036,387.325a44.91214,44.91214,0,0,1,.50273,6.78835c0,6.69916-1.41448,14.22991-5.67493,23.64617l-22.79772,58.3027c22.18847-11.445,37.11286-32.70821,37.11286-57.06411a59.7826,59.7826,0,0,0-9.143-31.67312Z"
        transform="translate(-43.05632 -143.875)" fill="#f50057" />
</svg>