<svg id="e1774615-6c5f-4199-8d8c-187452296bcf" data-name="Layer 1" xmlns="http://www.w3.org/2000/svg" width="734.73628" height="779.78485" viewBox="0 0 734.73628 779.78485"><path d="M967.36814,233.05483h-3.99878V123.50949a63.40184,63.40184,0,0,0-63.40179-63.40191H667.88084a63.40185,63.40185,0,0,0-63.402,63.40172V724.48371a63.40186,63.40186,0,0,0,63.40179,63.40191H899.96726a63.40186,63.40186,0,0,0,63.402-63.40167V311.03107h3.99884Z" transform="translate(-232.63186 -60.10758)" fill="#3f3d56"/><path d="M902.52561,76.60256h-30.295a22.49484,22.49484,0,0,1-20.82715,30.99052H718.444a22.4948,22.4948,0,0,1-20.82715-30.99056H669.32127a47.34781,47.34781,0,0,0-47.34784,47.34774V724.04285a47.34781,47.34781,0,0,0,47.34777,47.34784H902.52561a47.3478,47.3478,0,0,0,47.34784-47.34778h0V123.9503A47.34776,47.34776,0,0,0,902.52561,76.60256Z" transform="translate(-232.63186 -60.10758)" fill="#fff"/><path d="M798.1627,728.88642a89.85864,89.85864,0,1,1,66.44775-29.41327l18.76538,21.03576-9.36432,3.97211c-14.48639,6.14472-28.66235.16559-36.619-4.60626A89.97151,89.97151,0,0,1,798.1627,728.88642Zm0-164.94757a75.18442,75.18442,0,1,0,36.14392,141.12371l4.00873-2.20269,3.72723,2.65216A39.4221,39.4221,0,0,0,856.267,712.02l-11.80835-13.23675,5.17614-4.8642a74.47632,74.47632,0,0,0,23.71234-54.79572A75.26973,75.26973,0,0,0,798.1627,563.93885Z" transform="translate(-232.63186 -60.10758)" fill="#e6e6e6"/><path d="M880.63645,639.12317a82.44129,82.44129,0,1,0-42.8197,72.32837c5.70105,4.05634,19.609,12.147,33.34833,6.31909L854.6265,699.23126A82.23982,82.23982,0,0,0,880.63645,639.12317Z" transform="translate(-232.63186 -60.10758)" fill="#fff"/><rect x="523.05395" y="562.15271" width="58.93216" height="5.47272" fill="#f50103"/><rect x="523.05395" y="581.08453" width="102.71378" height="5.47272" fill="#e6e6e6"/><rect x="523.05395" y="600.0163" width="102.61319" height="5.47272" fill="#e6e6e6"/><path d="M798.1627,329.88639a89.85859,89.85859,0,1,1,66.44775-29.41324l18.76538,21.03579-9.36432,3.97211c-14.48639,6.14472-28.66235.16556-36.619-4.60629A89.9719,89.9719,0,0,1,798.1627,329.88639Zm0-164.94756a75.18443,75.18443,0,1,0,36.14392,141.12373l4.00873-2.20266,3.72723,2.65216A39.4221,39.4221,0,0,0,856.267,313.02l-11.80835-13.23675,5.17614-4.86417a74.4765,74.4765,0,0,0,23.71234-54.79578,75.26971,75.26971,0,0,0-75.18444-75.18444Z" transform="translate(-232.63186 -60.10758)" fill="#e6e6e6"/><path d="M880.63645,240.1232a82.44137,82.44137,0,1,0-42.8197,72.32837c5.70105,4.05631,19.609,12.14707,33.34833,6.31906l-16.53858-18.5394A82.23979,82.23979,0,0,0,880.63645,240.1232Z" transform="translate(-232.63186 -60.10758)" fill="#fff"/><rect x="523.05395" y="163.15269" width="58.93216" height="5.4727" fill="#f50103"/><rect x="523.05395" y="182.0845" width="102.71378" height="5.4727" fill="#e6e6e6"/><rect x="523.05395" y="201.01633" width="102.61319" height="5.4727" fill="#e6e6e6"/><circle cx="679.76773" cy="264.44629" r="13" fill="#e6e6e6"/><circle cx="679.76773" cy="663.44629" r="13" fill="#e6e6e6"/><path d="M625.30534,536.11564c-9.5135,5.70547-26.46313,12.85456-43.78391,5.50757l-11.19653-4.74934,22.437-25.15166a107.15648,107.15648,0,1,1,32.5434,24.39343Z" transform="translate(-232.63186 -60.10758)" fill="#f50103"/><path d="M762.59857,439.06616a98.6152,98.6152,0,0,0-89.895-98.22284c2.87241-.25161,5.7779-.38776,8.71557-.38776a98.6106,98.6106,0,0,1,0,197.22116c-2.93324,0-5.83375-.13791-8.7018-.389A98.61525,98.61525,0,0,0,762.59857,439.06616Z" transform="translate(-232.63186 -60.10758)" opacity="0.1" style="isolation:isolate"/><rect x="382.95641" y="359.29429" width="70.46282" height="6.54348" fill="#fff"/><rect x="382.95641" y="381.93032" width="122.81076" height="6.54348" fill="#fff"/><rect x="382.95641" y="404.56632" width="122.69052" height="6.54348" fill="#fff"/></svg>